<svg width="48" height="48" viewBox="0 0 48 48" fill="none" xmlns="http://www.w3.org/2000/svg">
<rect width="48" height="48" rx="10" fill="#546EE5"/>
<path d="M27.4497 15.7803C27.4097 16.0303 27.3897 16.2803 27.3897 16.5303C27.3897 18.7803 29.2097 20.5993 31.4497 20.5993C31.6997 20.5993 31.9397 20.5703 32.1897 20.5303V28.5993C32.1897 31.9903 30.1897 34.0003 26.7897 34.0003H19.4007C15.9997 34.0003 13.9997 31.9903 13.9997 28.5993V21.2003C13.9997 17.8003 15.9997 15.7803 19.4007 15.7803H27.4497ZM27.6507 21.8603C27.3797 21.8303 27.1107 21.9503 26.9497 22.1703L24.5307 25.3003L21.7597 23.1203C21.5897 22.9903 21.3897 22.9393 21.1897 22.9603C20.9907 22.9903 20.8107 23.0993 20.6897 23.2593L17.7307 27.1103L17.6697 27.2003C17.4997 27.5193 17.5797 27.9293 17.8797 28.1503C18.0197 28.2403 18.1697 28.3003 18.3397 28.3003C18.5707 28.3103 18.7897 28.1893 18.9297 28.0003L21.4397 24.7693L24.2897 26.9103L24.3797 26.9693C24.6997 27.1393 25.0997 27.0603 25.3297 26.7593L28.2197 23.0303L28.1797 23.0503C28.3397 22.8303 28.3697 22.5503 28.2597 22.3003C28.1507 22.0503 27.9097 21.8803 27.6507 21.8603ZM31.5898 14C32.9198 14 33.9998 15.08 33.9998 16.41C33.9998 17.74 32.9198 18.82 31.5898 18.82C30.2598 18.82 29.1798 17.74 29.1798 16.41C29.1798 15.08 30.2598 14 31.5898 14Z" fill="white"/>
</svg>
