<svg width="48" height="48" viewBox="0 0 48 48" fill="none" xmlns="http://www.w3.org/2000/svg">
<rect width="48" height="48" rx="10" fill="#54C2E5"/>
<path d="M21.5 27.0152C25.5668 27.0152 29 27.6844 29 30.2687C29 32.8531 25.5448 33.5 21.5 33.5C17.4332 33.5 14 32.8298 14 30.2464C14 27.6621 17.4542 27.0152 21.5 27.0152ZM30.999 19.5C31.4952 19.5 31.8979 19.9094 31.8979 20.4116V21.5879H33.101C33.5962 21.5879 34 21.9973 34 22.4995C34 23.0016 33.5962 23.4111 33.101 23.4111H31.8979V24.5884C31.8979 25.0906 31.4952 25.5 30.999 25.5C30.5038 25.5 30.1 25.0906 30.1 24.5884V23.4111H28.899C28.4027 23.4111 28 23.0016 28 22.4995C28 21.9973 28.4027 21.5879 28.899 21.5879H30.1V20.4116C30.1 19.9094 30.5038 19.5 30.999 19.5ZM21.5 14.5C24.2546 14.5 26.4626 16.7366 26.4626 19.5268C26.4626 22.3171 24.2546 24.5537 21.5 24.5537C18.7454 24.5537 16.5374 22.3171 16.5374 19.5268C16.5374 16.7366 18.7454 14.5 21.5 14.5Z" fill="white"/>
</svg>
