<svg width="48" height="48" viewBox="0 0 48 48" fill="none" xmlns="http://www.w3.org/2000/svg">
<rect width="48" height="48" rx="10" fill="#54C2E5"/>
<path d="M24.4362 16C24.7611 16 25.0251 16.2565 25.0251 16.5731V18.9783C25.0251 19.3635 25.354 19.6829 25.7505 19.6829C26.1567 19.6829 26.4758 19.3635 26.4758 18.9783V16.5731C26.4758 16.2565 26.7398 16 27.0658 16H30.2186C32.3075 16 34 17.6442 34 19.6735V22.0411C34 22.229 33.9226 22.4075 33.7872 22.539C33.6518 22.6706 33.4681 22.7457 33.2747 22.7457C32.559 22.7457 31.9787 23.3095 31.9787 23.9953C31.9787 24.6858 32.5522 25.2467 33.2611 25.2543C33.6605 25.258 34 25.5286 34 25.9166V28.3265C34 30.3549 32.3075 32 30.2186 32H27.0658C26.7398 32 26.4758 31.7435 26.4758 31.4269V29.3975C26.4758 29.0029 26.1567 28.6929 25.7505 28.6929C25.354 28.6929 25.0251 29.0029 25.0251 29.3975V31.4269C25.0251 31.7435 24.7611 32 24.4362 32H17.7814C15.7021 32 14 30.3558 14 28.3265V25.9166C14 25.5286 14.3395 25.258 14.7389 25.2543C15.4487 25.2467 16.0213 24.6858 16.0213 23.9953C16.0213 23.3282 15.4603 22.8209 14.7253 22.8209C14.5319 22.8209 14.3482 22.7457 14.2128 22.6142C14.0774 22.4827 14 22.3042 14 22.1163V19.6829C14 17.6573 15.706 16 17.7911 16H24.4362ZM25.7505 21.7029C25.354 21.7029 25.0251 22.0223 25.0251 22.4075V26.1656C25.0251 26.5508 25.354 26.8702 25.7505 26.8702C26.1567 26.8702 26.4758 26.5508 26.4758 26.1656V22.4075C26.4758 22.0223 26.1567 21.7029 25.7505 21.7029Z" fill="white"/>
</svg>
