<svg width="48" height="48" viewBox="0 0 48 48" fill="none" xmlns="http://www.w3.org/2000/svg">
<rect width="48" height="48" rx="10" fill="#E55454"/>
<path d="M23.4927 14C25.9753 14 28 15.99 28 18.44V23.23H21.8953C21.4578 23.23 21.1119 23.57 21.1119 24C21.1119 24.42 21.4578 24.77 21.8953 24.77H28V29.55C28 32 25.9753 34 23.4724 34H18.5174C16.0247 34 14 32.01 14 29.56V18.45C14 15.99 16.0349 14 18.5276 14H23.4927ZM30.5402 20.5502C30.8402 20.2402 31.3302 20.2402 31.6302 20.5402L34.5502 23.4502C34.7002 23.6002 34.7802 23.7902 34.7802 24.0002C34.7802 24.2002 34.7002 24.4002 34.5502 24.5402L31.6302 27.4502C31.4802 27.6002 31.2802 27.6802 31.0902 27.6802C30.8902 27.6802 30.6902 27.6002 30.5402 27.4502C30.2402 27.1502 30.2402 26.6602 30.5402 26.3602L32.1402 24.7702H28.0002V23.2302H32.1402L30.5402 21.6402C30.2402 21.3402 30.2402 20.8502 30.5402 20.5502Z" fill="white"/>
</svg>
