<svg width="24" height="28" viewBox="0 0 24 28" fill="none" xmlns="http://www.w3.org/2000/svg">
<path d="M21.2521 9.5962C21.5179 9.5962 21.7591 9.7122 21.9497 9.9082C22.1274 10.1175 22.2169 10.3775 22.1909 10.6522C22.1909 10.7429 21.4803 19.7294 21.0744 23.5121C20.8203 25.8334 19.3238 27.2427 17.0792 27.2814C15.3532 27.32 13.6662 27.3334 12.0051 27.3334C10.2415 27.3334 8.51684 27.32 6.84275 27.2814C4.67331 27.2294 3.17558 25.7947 2.93439 23.5121C2.51684 19.7161 1.81919 10.7429 1.80622 10.6522C1.79326 10.3775 1.88144 10.1175 2.06038 9.9082C2.23674 9.7122 2.4909 9.5962 2.75803 9.5962H21.2521ZM14.753 0.666687C15.9317 0.666687 16.9847 1.48935 17.2894 2.66267L17.5072 3.63599C17.6836 4.42932 18.3709 4.99064 19.1619 4.99064H23.0495C23.5682 4.99064 24 5.42131 24 5.9693V6.47596C24 7.01062 23.5682 7.45462 23.0495 7.45462H0.951805C0.431813 7.45462 0 7.01062 0 6.47596V5.9693C0 5.42131 0.431813 4.99064 0.951805 4.99064H4.83942C5.62913 4.99064 6.3164 4.42932 6.49406 3.63732L6.69764 2.728C7.01405 1.48935 8.05533 0.666687 9.24703 0.666687H14.753Z" fill="white"/>
</svg>
