<svg width="23" height="22" viewBox="0 0 23 22" fill="none" xmlns="http://www.w3.org/2000/svg">
<ellipse cx="11.4681" cy="11" rx="11.4681" ry="11" fill="#54A8E5"/>
<path fill-rule="evenodd" clip-rule="evenodd" d="M11.468 5C11.0362 5 10.6861 5.35007 10.6861 5.78191V10.25H5.96271C5.54849 10.25 5.21271 10.5858 5.21271 11C5.21271 11.4142 5.54849 11.75 5.96271 11.75H10.6861V16.2181C10.6861 16.6499 11.0362 17 11.468 17C11.8999 17 12.2499 16.6499 12.2499 16.2181V11.75H16.9733C17.3876 11.75 17.7233 11.4142 17.7233 11C17.7233 10.5858 17.3876 10.25 16.9733 10.25H12.2499V5.78192C12.2499 5.35008 11.8999 5 11.468 5Z" fill="white"/>
</svg>
